<svg xmlns="http://www.w3.org/2000/svg" viewBox="0 0 24 24" fill="none">
  <path d="M18.9 5.5A15.7 15.7 0 0 0 15.1 4l-.3.6a14.3 14.3 0 0 0-5.6 0L9 4a15.7 15.7 0 0 0-3.8 1.5C3.6 9.1 2.9 12.6 3.2 16l2.3 1.7c.5-.2 1-.4 1.5-.6l-.4-1.8 1.1.8c.8-.4 1.7-.7 2.6-.9l-.1-1.2 1.1.7c1.8-.3 3.7-.3 5.5 0l1.1-.7-.1 1.2c.9.2 1.8.5 2.6.9l1.1-.8-.4 1.8c.5.2 1 .4 1.5.6L20.8 16c.4-3.8-.4-7.3-1.9-10.5z" fill="#5865F2"/>
  <circle cx="9.4" cy="12.8" r="1.2" fill="#fff"/>
  <circle cx="14.6" cy="12.8" r="1.2" fill="#fff"/>
</svg>
