<svg xmlns="http://www.w3.org/2000/svg" viewBox="0 0 24 24" fill="none">
  <path d="M4 13.5h1.2v3H4v-3zm1.8 0h1.1v3H5.8v-3zm1.7 0h1v3h-1v-3zm1.6-.4h.9v3.4h-.9v-3.4zm1.5-.6h.8v4h-.8v-4zm1.4-.8h.8v4.8h-.8v-4.8zm1.3-1h.7v5.8h-.7v-5.8zm1.2-1.1h.7v6.9h-.7V10.6zm1.1-1.2h.6v8.1h-.6V9.4zm1-.9h.6v9h-.6v-9zm1-.5h.5v9.5h-.5v-9.5zm1-.2h.5v9.7h-.5v-9.7zm1 0h.5v9.7h-.5v-9.7zm1 .3h.5v9.4h-.5v-9.4zm1 .7h.5v8.7h-.5v-8.7z" fill="#FF5500"/>
  <path d="M3 14.5c0 .8.7 1.5 1.5 1.5h14c1.1 0 2-.9 2-2s-.9-2-2-2H4.5c-.8 0-1.5.7-1.5 1.5z" fill="#FF5500" opacity=".25"/>
</svg>
